:SAMPLES-PER-SECOND 30
:FULLY-SPECIFIED
:DEGREES
16
root  83.5034 40.0435 4.28253 -167.556 -85.8218 165.612
RightUpLeg  2.83989 -10.8668 -10.6955
RightLeg  6.27117 -0.574015 3.55848
RightFoot  -5.16526 -0.323958 5.35291
RightToes  -2.9104e-010 0 -3.6325e-017
Spine  7.15006 0.907114 -0.533798
Spine1  0.837712 0.833192 0.821644
HEad  3.23905 -2.53895 3.69753
LeftShoulder1  1.74841 -4.23689 -15.7545
LeftArm  -22.2615 17.2158 -11.1639
LeftForeArm  -99.5317 -3.93354 -0.763692
LeftHand  -0.244104 0.0205437 5.32207
RightShoulder  0.997318 1.33132 13.7065
RightArm  -22.9199 -12.9669 10.6971
RightForeArm  8.23862 13.7855 3.06945
RightHand  -1.6802 6.05246 -17.2335
LeftUpLeg  1.72729 7.30731 1.51372
LeftLeg  9.00941 13.3941 -1.00896
LeftFoot  -10.4718 0.0886779 -3.42275
LeftToes  -1.62803e-010 -2.57217e-011 -2.5681e-011
17
root  83.337 39.9802 4.54217 -169.37 -85.3303 167.11
RightUpLeg  2.93678 -11.0792 -11.1688
RightLeg  7.01393 0.394193 3.29748
RightFoot  -5.65664 -0.353242 6.33199
RightToes  -2.9104e-010 0 -3.6325e-017
Spine  7.18498 0.813974 -0.645566
Spine1  1.33136 0.713105 0.81288
HEad  4.17484 -1.93373 3.7077
LeftShoulder1  1.70497 -4.0154 -15.852
LeftArm  -20.3193 18.6538 -12.513
LeftForeArm  -126.248 -0.0394346 0.012242
LeftHand  -0.244104 0.0205437 5.32207
RightShoulder  1.11077 1.74136 14.321
RightArm  -19.9941 -14.3777 11.7246
RightForeArm  9.20849 18.2206 3.83132
RightHand  -1.69651 5.77471 -17.8082
LeftUpLeg  2.13161 7.49054 1.09584
LeftLeg  9.62601 13.5798 -0.746
LeftFoot  -11.5478 0.0631983 -3.40586
LeftToes  -1.62803e-010 -2.57217e-011 -2.5681e-011
18
root  83.1668 39.8876 4.83445 -169.246 -85.1059 166.463
RightUpLeg  2.82957 -11.8943 -11.7813
RightLeg  8.73971 1.50562 2.82061
RightFoot  -6.35329 -0.336294 6.70291
RightToes  -2.9104e-010 0 -3.6325e-017
Spine  7.26431 0.853277 -0.402955
Spine1  2.19088 0.928349 -0.138984
HEad  5.26161 -2.06382 4.46488
LeftShoulder1  1.75494 -4.40215 -15.3333
LeftArm  -20.4771 20.038 -14.7039
LeftForeArm  -106.27 1.86597 1.16625
LeftHand  -0.244104 0.0205437 5.32207
RightShoulder  1.18169 1.63576 16.2897
RightArm  -17.8799 -16.4584 12.3543
RightForeArm  7.66826 23.7422 4.68852
RightHand  -1.74483 5.70488 -18.4065
LeftUpLeg  2.60032 7.61517 0.516273
LeftLeg  10.4406 13.4971 -0.443462
LeftFoot  -12.4149 0.0451322 -3.13715
LeftToes  -1.62803e-010 -2.57217e-011 -2.5681e-011
19
root  83.0042 39.7578 5.14599 -168.27 -84.9392 164.971
RightUpLeg  2.02692 -12.9587 -12.2347
RightLeg  11.6578 2.8286 1.93659
RightFoot  -7.31894 -0.287438 6.79437
RightToes  -2.9104e-010 0 -3.6325e-017
Spine  7.66144 0.746078 -0.813025
Spine1  2.9399 0.707931 0.0543446
HEad  5.04491 -1.6733 4.2013
LeftShoulder1  1.82204 -4.15538 -17.0404
LeftArm  -22.656 20.9425 -15.6898
LeftForeArm  33.5864 4.56243 3.09529
LeftHand  -0.244104 0.0205437 5.32207
RightShoulder  1.25129 1.73523 17.266
RightArm  -17.3316 -18.6033 14.0037
RightForeArm  6.36838 29.2215 6.00017
RightHand  -1.84113 5.89262 -19.0798
LeftUpLeg  2.85841 7.88838 -0.123876
LeftLeg  11.5958 13.3161 -0.10875
LeftFoot  -13.2088 0.0347367 -2.72829
LeftToes  -1.62803e-010 -2.57217e-011 -2.5681e-011
20
root  82.8611 39.5871 5.45409 -168.134 -84.4742 164.485
RightUpLeg  -0.0868477 -12.24 -12.3212
RightLeg  16.1753 2.71505 0.810219
RightFoot  -7.96649 -0.300223 8.32869
RightToes  -2.9104e-010 0 -3.6325e-017
Spine  8.46045 0.811597 -1.26626
Spine1  3.07208 0.647995 0.056751
HEad  4.90958 -1.18711 3.94035
LeftShoulder1  1.91506 -3.93797 -19.1796
LeftArm  -25.8482 21.5424 -16.6249
LeftForeArm  24.7146 -2.13593 3.14051
LeftHand  -0.244104 0.0205437 5.32207
RightShoulder  1.38447 1.97739 18.7482
RightArm  -16.7042 -20.6669 15.597
RightForeArm  5.68604 33.892 7.23118
RightHand  -1.89875 5.80149 -19.8126
LeftUpLeg  2.76253 8.49235 -0.662199
LeftLeg  13.1507 13.2247 0.218139
LeftFoot  -14.2116 0.0230447 -2.47443
LeftToes  -1.62803e-010 -2.57217e-011 -2.5681e-011
21
root  82.7324 39.4111 5.75013 -169.55 -83.6499 165.62
RightUpLeg  -3.61502 -8.95986 -12.258
RightLeg  22.7087 -0.555117 -0.52164
RightFoot  -6.92699 -0.479622 11.0225
RightToes  -2.9104e-010 0 -3.6325e-017
Spine  9.65245 0.832257 -1.98121
Spine1  2.85274 0.417184 0.435075
HEad  4.48574 -0.194761 3.14762
LeftShoulder1  1.96202 -3.32185 -22.306
LeftArm  -27.8392 21.6828 -17.4118
LeftForeArm  21.2455 -6.1112 2.86748
LeftHand  -0.244104 0.0205437 5.32207
RightShoulder  1.63762 2.69505 19.9938
RightArm  -16.2562 -22.0207 17.9184
RightForeArm  6.95727 36.8092 7.97655
RightHand  -1.86937 5.38561 -20.2327
LeftUpLeg  2.64508 9.26898 -1.02677
LeftLeg  14.6794 13.3126 0.453182
LeftFoot  -15.3936 0.00838965 -2.37174
LeftToes  -1.62803e-010 -2.57217e-011 -2.5681e-011
22
root  82.5771 39.2967 6.04073 -172.015 -82.849 167.71
RightUpLeg  -7.8928 -6.77715 -12.0072
RightLeg  30.5057 -4.2436 -2.94834
RightFoot  -3.46692 -0.848024 12.0546
RightToes  -2.9104e-010 0 -3.6325e-017
Spine  10.6591 0.936735 -2.14746
Spine1  3.13034 0.496319 0.153409
HEad  4.49444 0.450676 2.97103
LeftShoulder1  2.18725 -3.52521 -24.8081
LeftArm  -28.5244 21.27 -18.9169
LeftForeArm  15.4938 -6.52981 2.66163
LeftHand  -0.244104 0.0205437 5.32207
RightShoulder  1.94234 3.31489 22.2088
RightArm  -16.1686 -22.7542 20.3571
RightForeArm  9.28785 37.661 8.08818
RightHand  -1.83492 5.22945 -20.1544
LeftUpLeg  3.01468 9.82711 -1.22572
LeftLeg  15.4888 13.5424 0.536687
LeftFoot  -16.3426 0.00439268 -2.14442
LeftToes  -1.62803e-010 -2.57217e-011 -2.5681e-011
23
root  82.3475 39.2478 6.31234 -174.793 -82.3772 170.054
RightUpLeg  -12.0892 -5.96095 -11.3033
RightLeg  37.7502 -6.58258 -5.66862
RightFoot  0.669014 -1.05447 10.0843
RightToes  -2.9104e-010 0 -3.6325e-017
Spine  11.3724 0.886232 -2.33426
Spine1  3.87236 0.353329 0.385979
HEad  4.12082 1.35203 2.48649
LeftShoulder1  2.6824 -4.32623 -28.0578
LeftArm  -28.0405 20.2691 -19.9298
LeftForeArm  10.2872 -5.84021 2.26046
LeftHand  -0.244104 0.0205437 5.32207
RightShoulder  2.27531 4.01665 24.0858
RightArm  -16.1827 -22.8963 23.5317
RightForeArm  10.8396 36.2539 7.58695
RightHand  -1.89109 5.62495 -20.0353
LeftUpLeg  3.85162 9.99858 -1.30384
LeftLeg  15.645 13.8505 0.548013
LeftFoot  -16.9538 0.0139536 -1.78832
LeftToes  -1.62803e-010 -2.57217e-011 -2.5681e-011
24
root  82.0248 39.2351 6.54651 -178.237 -82.1582 173.194
RightUpLeg  -15.5727 -6.02471 -9.97324
RightLeg  42.3353 -6.30511 -6.37688
RightFoot  2.90138 -0.924182 7.50563
RightToes  -2.9104e-010 0 -3.6325e-017
Spine  11.4819 0.771204 -2.41228
Spine1  5.09977 0.124318 0.821672
HEad  3.78394 2.22509 1.80918
LeftShoulder1  3.50045 -5.73067 -31.7914
LeftArm  -27.037 18.6884 -20.5168
LeftForeArm  5.59018 -5.14814 1.61504
LeftHand  -0.244104 0.0205437 5.32207
RightShoulder  2.60105 4.6749 25.7102
RightArm  -15.9115 -22.6053 27.1152
RightForeArm  10.8728 32.8945 6.6717
RightHand  -1.92515 5.87044 -19.96
LeftUpLeg  4.86251 9.88583 -1.18435
LeftLeg  15.4547 14.2146 0.491028
LeftFoot  -17.4377 0.0194666 -1.59618
LeftToes  -1.62803e-010 -2.57217e-011 -2.5681e-011
25
root  81.6216 39.2305 6.74185 177.797 -82.0429 177.146
RightUpLeg  -18.22 -6.83821 -8.067
RightLeg  43.3132 -4.26502 -4.60806
RightFoot  3.0011 -0.868099 7.05614
RightToes  -2.9104e-010 0 -3.6325e-017
Spine  11.3263 0.558614 -2.31923
Spine1  6.11814 -0.17258 1.1849
HEad  4.11065 3.12148 0.997293
LeftShoulder1  4.55412 -7.33643 -35.8799
LeftArm  -25.4804 16.831 -20.7365
LeftForeArm  7.50239 -4.4124 1.00376
LeftHand  -0.244104 0.0205437 5.32207
RightShoulder  2.95015 5.34169 27.3128
RightArm  -14.9365 -22.0594 30.6095
RightForeArm  10.8559 28.2423 5.50977
RightHand  -1.7558 5.29011 -19.194
LeftUpLeg  5.78024 9.6165 -0.874318
LeftLeg  15.0729 14.5332 0.296746
LeftFoot  -17.9902 0.00990425 -1.68477
LeftToes  -1.62803e-010 -2.57217e-011 -2.5681e-011
26
root  81.1532 39.2005 6.90811 174.441 -82.1028 -179.26
RightUpLeg  -20.1527 -8.44951 -5.83159
RightLeg  41.0833 -2.47615 -2.59855
RightFoot  2.57799 -1.00599 8.37046
RightToes  -2.9104e-010 0 -3.6325e-017
Spine  11.4274 0.229761 -2.15839
Spine1  6.25173 -0.500797 1.21354
HEad  4.78598 4.05673 0.352498
LeftShoulder1  5.7571 -8.96572 -39.8989
LeftArm  -23.3392 15.0724 -20.8393
LeftForeArm  9.80472 -4.2103 0.0650515
LeftHand  -0.244104 0.0205437 5.32207
RightShoulder  3.36732 6.03161 29.3321
RightArm  -13.5465 -21.7333 33.4072
RightForeArm  12.0272 23.2374 4.42754
RightHand  -1.46267 4.36584 -17.5514
LeftUpLeg  6.46947 9.28904 -0.586096
LeftLeg  14.7502 14.6631 0.0452638
LeftFoot  -18.6549 -0.00303816 -1.79924
LeftToes  -1.62803e-010 -2.57217e-011 -2.5681e-011
27
root  80.6177 39.1442 7.06125 171.719 -82.3321 -176.277
RightUpLeg  -21.3687 -10.5604 -3.3601
RightLeg  36.4797 -2.33877 -2.09237
RightFoot  2.2623 -1.09863 9.31999
RightToes  -2.9104e-010 0 -3.6325e-017
Spine  11.5946 -0.169382 -2.17044
Spine1  6.30272 -0.926138 1.32484
HEad  4.9019 4.83477 0.166528
LeftShoulder1  6.89896 -10.3257 -43.3943
LeftArm  -21.4326 13.0612 -21.4768
LeftForeArm  13.4847 -4.94809 -0.93706
LeftHand  -0.244104 0.0205437 5.32207
RightShoulder  3.78062 6.70113 31.0983
RightArm  -13.7573 -21.7392 36.0725
RightForeArm  14.3166 18.6119 4.01546
RightHand  -1.27989 3.90464 -16.1607
LeftUpLeg  7.20442 9.0099 -0.399054
LeftLeg  14.4731 14.6942 -0.16941
LeftFoot  -19.315 -0.005474 -1.74164
LeftToes  -1.62803e-010 -2.57217e-011 -2.5681e-011
28
root  80.0034 39.0644 7.20284 169.698 -82.5537 -174.165
RightUpLeg  -21.8166 -12.7848 -0.803811
RightLeg  30.238 -3.187 -2.23453
RightFoot  1.52717 -1.05552 9.43251
RightToes  -2.9104e-010 0 -3.6325e-017
Spine  11.7308 -0.607033 -2.43456
Spine1  6.83451 -1.4691 1.63071
HEad  4.03556 5.79587 0.153637
LeftShoulder1  7.65803 -11.0822 -45.7806
LeftArm  -19.8058 10.385 -23.2738
LeftForeArm  17.6321 -6.00698 -1.8971
LeftHand  -0.244104 0.0205437 5.32207
RightShoulder  4.11901 7.33313 32.0684
RightArm  -15.8409 -21.9787 39.1259
RightForeArm  15.9784 14.893 4.105
RightHand  -1.2234 3.64196 -15.8933
LeftUpLeg  8.29417 8.82993 -0.303989
LeftLeg  14.16 14.7187 -0.373171
LeftFoot  -20.0384 -0.0147557 -1.7716
LeftToes  -1.62803e-010 -2.57217e-011 -2.5681e-011
